<svg width="30" height="31" viewBox="0 0 30 31" fill="none" xmlns="http://www.w3.org/2000/svg">
<path d="M15 0.5C6.996 0.5 0.5 7.22 0.5 15.5C0.5 23.78 6.996 30.5 15 30.5C23.004 30.5 29.5 23.78 29.5 15.5C29.5 7.22 23.004 0.5 15 0.5ZM15 5C17.407 5 19.35 7.01 19.35 9.5C19.35 11.99 17.407 14 15 14C12.593 14 10.65 11.99 10.65 9.5C10.65 7.01 12.593 5 15 5ZM15 26.3C11.375 26.3 8.1705 24.38 6.3 21.47C6.3435 18.485 12.1 16.85 15 16.85C17.8855 16.85 23.6565 18.485 23.7 21.47C21.8295 24.38 18.625 26.3 15 26.3Z" fill="white"/>
</svg>
